<svg width="22" height="17" viewBox="0 0 22 17" xmlns="http://www.w3.org/2000/svg">
    <path d="M1.683 10.488c.197-.682.927-1.199 1.692-1.199h3.96c.765 0 1.496.52 1.693 1.199l1.132 4.952c.237.82-.38 1.56-1.301 1.56H1.852c-.92 0-1.538-.743-1.301-1.56l1.132-4.952zm11.289 0c.197-.682.927-1.199 1.692-1.199h3.96c.765 0 1.496.52 1.693 1.199l1.132 4.952c.237.82-.38 1.56-1.301 1.56H13.14c-.92 0-1.538-.743-1.301-1.56l1.132-4.952zM9.024 0h3.96c.765 0 1.496.519 1.693 1.198l1.132 4.953c.237.82-.38 1.56-1.301 1.56H7.5c-.92 0-1.538-.743-1.301-1.56l1.132-4.953C7.529.518 8.259 0 9.024 0z" fill="#FFF" fill-rule="evenodd"/>
</svg>
