<svg width="34" height="34" viewBox="0 0 34 34" xmlns="http://www.w3.org/2000/svg">
    <g fill="none" fill-rule="evenodd">
        <path d="M.8.8h32.4v32.4H.8z"/>
        <path d="M8.614 18.339c.178-.613.835-1.079 1.524-1.079h3.564c.688 0 1.346.468 1.523 1.079l1.019 4.457c.214.738-.342 1.404-1.171 1.404H8.767c-.829 0-1.384-.668-1.171-1.404l1.018-4.457zm10.16 0c.178-.613.835-1.079 1.524-1.079h3.564c.688 0 1.346.468 1.523 1.079l1.02 4.457c.213.738-.343 1.404-1.172 1.404h-6.306c-.829 0-1.384-.668-1.171-1.404l1.019-4.457zM15.223 8.9h3.564c.688 0 1.346.467 1.523 1.078l1.019 4.458c.214.737-.342 1.404-1.171 1.404h-6.306c-.829 0-1.384-.669-1.171-1.404l1.018-4.458c.178-.613.835-1.078 1.524-1.078z" fill="#FFF"/>
    </g>
</svg>
