<svg width="34" height="34" viewBox="0 0 34 34" xmlns="http://www.w3.org/2000/svg">
    <g fill="none" fill-rule="evenodd">
        <path d="M.8.8h32.4v32.4H.8z"/>
        <path d="M20.953 21.375c0 .539-.149.906-.719.906H15.5v-3.357h2.718a.255.255 0 0 0 .257-.253v-1.038a.255.255 0 0 0-.257-.253H15.5v-3.064c0-1.47.843-2.45 2.008-2.45 1.235 0 2.098.715 2.196 2.308l.01.3c0 .25.183.455.423.497l.094.008h2.213a.512.512 0 0 0 .508-.413l.008-.093v-.09c-.043-3.966-2.553-5.483-5.502-5.483-2.974 0-5.23 1.912-5.23 5.367v3.113h-1.452a.255.255 0 0 0-.257.253v1.038c0 .14.115.253.257.253h1.453v3.357h-1.915a.51.51 0 0 0-.514.507v1.806c0 .28.23.506.514.506h10.862c1.686 0 3.024-1.397 3.024-3.21V20.63a.51.51 0 0 0-.514-.506h-2.219a.51.51 0 0 0-.514.506v.744z" fill="#FFF"/>
    </g>
</svg>
