<svg width="34" height="34" viewBox="0 0 34 34" xmlns="http://www.w3.org/2000/svg">
    <g fill="none" fill-rule="evenodd">
        <path d="M.8.8h32.4v32.4H.8z"/>
        <path d="M18.037 7.55h-1.76a.631.631 0 0 0-.621.542l-.007.094v1.736l-.345.073c-.23.053-.458.119-.682.196a4.413 4.413 0 0 0-1.775 1.165l-.207.239c-.49.635-.765 1.4-.792 2.194a3.72 3.72 0 0 0 .726 2.433l.037.05a4.292 4.292 0 0 0 1.774 1.315c.48.185.97.341 1.467.467l1.098.256.42.112.105.015h.03l.795.235c.267.08.519.197.751.348.102.07.192.165.258.276.039.08.067.186.075.297l.002.182a.875.875 0 0 1-.145.524 1.494 1.494 0 0 1-.688.532c-.41.16-.84.247-1.275.259l-.345-.002a3.47 3.47 0 0 1-1.637-.35 1.578 1.578 0 0 1-.537-.498l-.584-.86a.476.476 0 0 0-.592-.168l-.078.045-1.7 1.203a.487.487 0 0 0-.163.595l.042.076.605.89a4.673 4.673 0 0 0 1.64 1.489l.372.172c.324.138.66.25 1.004.333l.343.075v1.93c0 .238.19.43.425.43h2.106a.487.487 0 0 0 .478-.403l.008-.089v-1.935l.328-.086c.218-.063.433-.137.644-.223a4.538 4.538 0 0 0 2.041-1.592c.86-1.3.957-2.96.262-4.343l-.05-.079a3.903 3.903 0 0 0-1.22-1.276 5.885 5.885 0 0 0-1.201-.605l-.438-.144-1.023-.286-.459-.117-.583-.132a9.88 9.88 0 0 1-1.517-.456c-.183-.076-.35-.201-.481-.36a.542.542 0 0 1-.1-.352l.002-.136c.005-.09.044-.2.112-.293.666-1.341 2.833-1.341 3.789-.178a.99.99 0 0 1 .253.272l.484.763a.61.61 0 0 0 .76.235l.09-.049 1.473-.965a.678.678 0 0 0 .248-.832l-.05-.096-.476-.75a4.031 4.031 0 0 0-1.026-1.105l-.239-.166a4.878 4.878 0 0 0-1.312-.603l-.312-.081V8.186a.632.632 0 0 0-.627-.636z" fill="#FFF"/>
    </g>
</svg>
