<svg width="20" height="20" viewBox="0 0 20 20" xmlns="http://www.w3.org/2000/svg">
    <g fill="none" fill-rule="evenodd">
        <path d="M0 0h20v20H0z"/>
        <path d="M10 3c2.12 0 4.067 1.27 5.604 2.728l.391.384c.382.387.734.78 1.053 1.16l.308.375.145.184.272.354.248.336.222.311.282.415.22.338L19 10l-.145.24-.176.279-.154.234-.282.415-.222.311-.248.336-.272.354-.296.37c-.359.438-.764.898-1.21 1.35l-.391.383C14.067 15.73 12.12 17 10 17c-2.538 0-4.828-1.82-6.462-3.603l-.352-.395c-.057-.065-.113-.13-.168-.196l-.318-.384-.294-.373-.27-.355-.242-.334-.216-.307-.188-.278-.289-.444L1 10l.145-.24.176-.279.154-.234.282-.415.222-.311.248-.336.272-.354.296-.37c.359-.438.764-.898 1.21-1.35l.391-.383C5.933 4.27 7.88 3 10 3zm0 2.5a4.5 4.5 0 1 0 0 9 4.5 4.5 0 0 0 0-9zm0 1.94c1.436 0 2.6 1.146 2.6 2.56 0 1.414-1.164 2.56-2.6 2.56-1.436 0-2.6-1.146-2.6-2.56 0-1.414 1.164-2.56 2.6-2.56z" fill="#C0C0CC"/>
    </g>
</svg>
