<svg width="34" height="34" viewBox="0 0 34 34" xmlns="http://www.w3.org/2000/svg">
    <g fill="none" fill-rule="evenodd">
        <path d="M.8.8h32.4v32.4H.8z"/>
        <path d="m16.637 8.45-.21.005c-2.496.118-4.48 2.34-4.48 5.055v1.92H10.19a.397.397 0 0 0-.39.404v2.319c0 .201.138.37.321.409l.082.008h1.744v1.92c0 2.79 2.096 5.06 4.69 5.06h1.074c2.594 0 4.689-2.27 4.689-5.06a.4.4 0 0 0-.392-.407h-2.15c-.19 0-.349.14-.385.325l-.008.082c0 1.064-.79 1.92-1.754 1.92h-1.074l-.143-.007c-.899-.08-1.611-.902-1.611-1.913v-1.92h3.357a.405.405 0 0 0 .393-.332l.008-.084v-2.278a.443.443 0 0 0-.353-.44l-.077-.006h-3.329l.001-1.92c0-1.064.79-1.92 1.754-1.92h1.074c.964 0 1.754.856 1.754 1.92a.4.4 0 0 0 .392.407h2.15c.19 0 .348-.14.385-.325l.008-.082c0-2.79-2.095-5.06-4.69-5.06h-1.073z" fill="#FFF"/>
    </g>
</svg>
