<svg width="22" height="18" viewBox="0 0 22 18" xmlns="http://www.w3.org/2000/svg">
    <path d="M20.121 5.533c.888 0 1.379.504 1.379 1.321v9.66c0 .917-.549 1.486-1.478 1.486H1.895C.931 18 .5 17.31.5 16.513V6.854c0-.925.505-1.32 1.395-1.32h18.226zM11 8.933c-1.534 0-2.778 1.269-2.778 2.834C8.222 13.33 9.466 14.6 11 14.6s2.778-1.269 2.778-2.833c0-1.565-1.244-2.834-2.778-2.834zm-6.759 1.7c-.614 0-1.111.508-1.111 1.134 0 .626.497 1.133 1.111 1.133s1.111-.507 1.111-1.133-.497-1.134-1.11-1.134zm13.52 0c-.614 0-1.111.508-1.111 1.134 0 .626.497 1.133 1.111 1.133s1.111-.507 1.111-1.133-.497-1.134-1.11-1.134zm1.017-7.868c.84 0 1.11.907 1.11 1.533H2.112c0-.626.164-1.533 1.111-1.533h15.556zM16.556 0c1.004 0 1.314.804 1.314 1.43H4.13C4.13.804 4.433 0 5.444 0h11.112z" fill="#FFF" fill-rule="evenodd"/>
</svg>
