<svg width="88" height="44" viewBox="0 0 88 44" xmlns="http://www.w3.org/2000/svg">
    <g fill="none" fill-rule="evenodd">
        <path d="M0 0h88v44H0z"/>
        <path d="M3.667 9.808H19.17v2.69c0 .62-.235 1.241-.706 1.715-.47.474-1.087.71-1.705.71H8.815v5.126h8.903v2.486a2.64 2.64 0 0 1-.768 1.866 2.607 2.607 0 0 1-1.855.773h-6.28v8.546H3.677l-.01-23.912zM61.3 11.749a.151.151 0 0 0-.11-.04c-.04 0-.07.01-.1.03-.06.04-.08.13-.05.197a5.29 5.29 0 0 1 .558 2.356c0 2.75-2.151 5.176-5.029 5.638-.22.05-.439.079-.657.079h-5.04v-5.125h6.304a2.56 2.56 0 0 1 2.3 1.4c.02.049.07.088.13.088l.01.01c.05 0 .1-.03.13-.07.457-.61.677-1.418.677-2.542a3.58 3.58 0 0 0-1.296-2.79c-.925-.788-2.31-1.202-3.982-1.202h-9.41V33.88h5.138v-8.726h5.238c4.282 0 7.767-3.45 7.767-7.688a7.7 7.7 0 0 0-2.578-5.717m-22.133-.737c1.595-1.645 3.834-1.16 3.834-1.16V23.44c0 5.884-4.84 10.675-10.785 10.675-3.366 0-6.473-1.508-8.524-4.14-.05-.06-.04-.147.01-.207.03-.03.079-.05.12-.05.029 0 .059.01.089.03a9.57 9.57 0 0 0 4.83 1.449h.288c2.55-.01 4.97-.975 6.653-2.67 1.434-1.45 2.21-3.323 2.17-5.254v-8.026c0-1.394.028-2.906 1.315-4.234zM22.167 9.836c.509-.078 2.199-.214 3.595 1.105 1.148 1.084 1.392 2.532 1.392 3.796v10.5c0 1.962 1.085 3.795 2.838 4.77.059.04.099.11.079.179a.181.181 0 0 1-.15.127c-.228.02-.447.03-.667.03-4.062 0-7.25-2.75-7.25-6.249l.01-14.23.057-.011zm45.39 16.858a10.443 10.443 0 0 0 7.538 3.167c2.772 0 4.123-1.303 4.123-2.64 0-1.76-2.062-2.357-4.798-2.99-3.871-.881-8.851-1.937-8.851-7.177 0-3.907 3.412-7.073 8.992-7.073 3.77 0 6.896 1.128 9.243 3.273l-2.811 3.656c-1.915-1.76-4.48-2.573-6.79-2.573-2.275 0-3.483.986-3.483 2.393 0 1.584 1.99 2.076 4.728 2.71 3.91.88 8.885 2.042 8.885 7.25 0 4.294-3.091 7.532-9.49 7.532-4.55 0-7.82-1.514-10.06-3.73l2.773-3.798z" fill="#155ED4"/>
    </g>
</svg>
